<?xml version="1.0" standalone="no"?>
<!DOCTYPE svg PUBLIC "-//W3C//DTD SVG 20010904//EN"
 "http://www.w3.org/TR/2001/REC-SVG-20010904/DTD/svg10.dtd">
<svg version="1.0" xmlns="http://www.w3.org/2000/svg"
 width="225.000000pt" height="225.000000pt" viewBox="0 0 225.000000 225.000000"
 preserveAspectRatio="xMidYMid meet">
<metadata>
Created by potrace 1.11, written by Peter Selinger 2001-2013
</metadata>
<g transform="translate(0.000000,225.000000) scale(0.100000,-0.100000)"
fill="#000000" stroke="none">
<path d="M950 2234 c-343 -66 -616 -251 -788 -535 -70 -116 -130 -278 -148
-401 l-6 -48 264 0 263 0 24 70 c63 184 224 334 416 385 78 21 232 21 309 0
195 -52 376 -228 425 -412 l12 -43 261 0 260 0 -6 48 c-11 71 -44 184 -78 264
-133 314 -404 550 -739 644 -82 23 -116 27 -269 29 -96 2 -186 1 -200 -1z"/>
<path d="M14 951 c21 -159 109 -369 214 -507 154 -203 373 -348 627 -415 79
-21 113 -24 270 -24 157 0 191 3 270 24 254 67 473 212 627 415 105 138 193
348 214 507 l7 49 -261 0 -260 0 -12 -47 c-47 -188 -230 -367 -429 -418 -83
-21 -219 -21 -302 0 -163 42 -313 163 -387 313 -23 46 -44 98 -48 117 l-6 35
-265 0 -266 0 7 -49z"/>
</g>
</svg>
